HIERARCHY
ROOT Hips
{
	OFFSET	0.00	0.00	0.00
	CHANNELS 6 Xposition Yposition Zposition Zrotation Xrotation Yrotation
	JOINT Chest
	{
		OFFSET	0.000000	6.275751	0.000000
		CHANNELS 3 Zrotation Xrotation Yrotation
		JOINT Neck
		{
			OFFSET	0.000000	14.296947	0.000000
			CHANNELS 3 Zrotation Xrotation Yrotation
			JOINT Head
			{
				OFFSET	0.000000	2.637461	0.000000
				CHANNELS 3 Zrotation Xrotation Yrotation
				End Site
				{
					OFFSET	0.000000	4.499004	0.000000
				}
			}
		}
		JOINT LeftCollar
		{
			OFFSET	1.120000	11.362855	1.870000
			CHANNELS 3 Zrotation Xrotation Yrotation
			JOINT LeftUpArm
			{
				OFFSET	4.565688	2.019026	-1.821179
				CHANNELS 3 Zrotation Xrotation Yrotation
				JOINT LeftLowArm
				{
					OFFSET	0.219729	-10.348825	-0.061708
					CHANNELS 3 Zrotation Xrotation Yrotation
					JOINT LeftHand
					{
						OFFSET	0.087892	-10.352228	2.178217
						CHANNELS 3 Zrotation Xrotation Yrotation
						End Site
						{
							OFFSET	0.131837	-6.692379	1.711456
						}
					}
				}
			}
		}
		JOINT RightCollar
		{
			OFFSET	-1.120000	11.362855	1.870000
			CHANNELS 3 Zrotation Xrotation Yrotation
			JOINT RightUpArm
			{
				OFFSET	-4.708080	2.034554	-1.821179
				CHANNELS 3 Zrotation Xrotation Yrotation
				JOINT RightLowArm
				{
					OFFSET	-0.263676	-10.428555	-0.061708
					CHANNELS 3 Zrotation Xrotation Yrotation
					JOINT RightHand
					{
						OFFSET	0.000000	-10.255345	2.178217
						CHANNELS 3 Zrotation Xrotation Yrotation
						End Site
						{
							OFFSET	-0.140882	-6.671274	1.711456
						}
					}
				}
			}
		}
	}
	JOINT LeftUpLeg
	{
		OFFSET	3.910000	0.000000	0.000000
		CHANNELS 3 Zrotation Xrotation Yrotation
		JOINT LeftLowLeg
		{
			OFFSET	-0.441177	-17.569450	1.695613
			CHANNELS 3 Zrotation Xrotation Yrotation
			JOINT LeftFoot
			{
				OFFSET	-0.043946	-17.197315	-1.478076
				CHANNELS 3 Zrotation Xrotation Yrotation
				End Site
				{
					OFFSET	0.000000	-3.933155	5.233925
				}
			}
		}
	}
	JOINT RightUpLeg
	{
		OFFSET	-3.910000	0.000000	0.000000
		CHANNELS 3 Zrotation Xrotation Yrotation
		JOINT RightLowLeg
		{
			OFFSET	0.437741	-17.622387	1.695613
			CHANNELS 3 Zrotation Xrotation Yrotation
			JOINT RightFoot
			{
				OFFSET	0.000000	-17.140001	-1.478076
				CHANNELS 3 Zrotation Xrotation Yrotation
				End Site
				{
					OFFSET	0.000000	-4.038528	5.233925
				}
			}
		}
	}
}
MOTION
Frames: 8
Frame Time: 0.04166667
116.873596	4.851767	3.947213	10.339817	3.835427	102.349632	-0.596144	-10.769172	-3.807938	-4.738604	23.652309	-17.172009	-3.155418	17.902485	0.090076	-16.686220	-7.863913	-7.066753	25.887781	7.779463	-53.827965	-3.507814	1.676040	4.148581	-15.581519	2.909956	-3.272614	3.137473	0.172621	8.659869	-15.255397	16.145184	19.115734	-3.670067	5.800961	1.181637	1.740621	2.402543	0.373308	-4.933902	10.026587	6.424755	-3.292835	5.827540	-11.252577	4.970401	-6.810417	-0.066123	-5.263023	-15.341715	2.880913	-1.256812	66.459564	-5.621430	-3.588107	24.311316	6.834459	
117.351006	4.976390	3.942783	10.736383	2.351383	103.294792	-0.988407	-10.176620	-5.640310	-2.202509	23.649553	-17.210249	-3.935707	17.683262	0.096698	-15.078754	-5.461871	-7.998343	25.703602	4.284917	-56.162659	-3.482350	1.454538	4.098061	-14.754274	2.864058	-3.102662	5.174878	0.384301	7.258702	-15.297616	15.733126	13.429361	-4.769942	5.914231	1.440687	0.377802	2.397123	0.081059	-3.156718	10.567677	4.274383	-3.155548	5.827295	-10.128018	4.816359	-7.132053	-0.040956	-3.039538	-16.913059	4.658349	-2.109905	65.451347	-9.868099	-8.418502	21.683718	8.985771	
117.567398	5.191150	3.974881	11.626922	1.794556	104.070068	-2.902797	-7.630972	-6.898723	1.394435	22.559999	-17.719236	-4.462574	17.460434	0.091569	-12.988210	-1.094514	-8.297071	26.330629	-2.070807	-57.127300	-3.099210	1.162318	3.212379	-7.227976	2.559239	-1.532260	8.729964	1.770158	4.743141	-16.175024	13.214153	17.180210	-5.182065	6.267489	1.384244	4.789283	2.440127	1.026100	-2.366506	13.379579	2.247911	-2.753681	2.202503	-8.855543	4.167006	-5.505476	-0.179975	-1.144492	-17.279621	7.301262	-2.465736	62.805790	-14.127503	-10.849495	20.098072	9.887513	
117.990860	5.330647	3.980333	11.975058	0.326262	104.300255	-2.809974	-6.619295	-7.721416	3.597532	22.129761	-17.830450	-4.922755	17.162100	0.074280	-10.938936	0.415682	-9.279488	25.758183	-4.761841	-58.381664	-2.921648	0.226301	3.090793	-5.936683	2.527840	-1.259564	10.202611	1.173245	3.777589	-15.830663	13.485028	14.720426	-5.626658	6.396030	1.407180	5.147760	2.446588	1.102767	-0.755482	13.972531	1.276390	-2.613135	1.761067	-7.970205	4.147525	-5.412577	-0.186931	1.332990	-17.860546	10.968469	-1.889955	59.354126	-14.581187	-10.889417	18.662689	9.656713	
118.215675	5.457079	3.969481	12.339770	-1.010338	103.925194	-2.386615	-5.500985	-8.084218	5.288339	21.644186	-17.560713	-5.471436	16.593184	0.025836	-8.736986	1.173410	-10.394475	24.803173	-6.274520	-62.527611	-2.014135	-0.942679	2.693124	-6.542761	2.541875	-1.387607	11.063550	0.286856	3.232967	-15.293460	14.103663	12.773248	-6.019899	6.462807	1.363634	6.177981	2.468557	1.322674	0.524219	14.861103	0.808669	-2.440849	0.915656	-6.972399	4.139031	-5.217113	-0.201564	3.358113	-17.789850	14.442553	-1.065956	54.806252	-13.394927	-10.386824	17.192579	9.191246	
118.447395	5.498696	3.912459	11.961792	-3.203557	102.796776	0.252342	-6.754402	-8.550366	4.823297	22.653263	-16.223833	-5.878786	15.853240	-0.051619	-6.878261	-3.758894	-12.745549	21.306534	-0.872342	-62.701252	-2.021074	-2.176983	2.702803	-5.451055	2.517598	-1.156817	8.020740	-4.042020	5.273564	-12.052925	19.609358	11.246964	-6.201698	6.542701	1.364616	6.104815	2.466827	1.307038	2.232347	13.534840	1.688581	-2.424689	3.055728	-6.034733	4.454191	-6.700976	-0.084569	5.675273	-18.221996	17.757511	-0.205061	49.619614	-10.648443	-9.726567	15.900110	8.715064	
118.642731	5.597078	3.867553	11.964652	-4.234831	101.256691	1.031581	-5.931618	-8.519636	5.428880	22.289732	-14.979625	-6.512638	15.300447	-0.122981	-6.190412	-3.195529	-13.340458	21.146374	-1.618726	-61.865921	-1.980885	-3.101148	2.648278	-4.470252	2.499667	-0.949127	8.523046	-4.009230	4.913360	-12.276770	19.062462	11.714708	-6.283239	6.570731	1.397250	5.392997	2.451251	1.155199	2.719769	14.820929	3.022110	-2.250809	1.262610	-5.319870	4.267520	-6.246166	-0.122901	6.500161	-17.653614	19.252262	0.447942	43.580410	-8.032381	-8.884334	14.966885	8.252413	
118.998756	5.676200	3.802871	11.764091	-4.911092	99.251877	1.599153	-5.171346	-8.408220	5.681905	21.919559	-13.323467	-7.164392	14.958154	-0.180249	-5.752096	-2.505362	-13.545909	21.103052	-2.305673	-60.886391	-2.073226	-3.738391	2.706192	-3.901476	2.490678	-0.828541	8.959635	-3.662472	4.459567	-12.829104	17.928873	12.694970	-6.342016	6.565695	1.415520	4.734195	2.439379	1.014307	2.616954	16.406857	4.883515	-2.092246	-1.252554	-4.890961	3.920154	-5.372921	-0.188408	6.655343	-16.795572	19.158875	0.970937	36.941822	-5.186889	-7.471886	14.486854	7.670139	
